<?xml version="1.0" encoding="UTF-8" standalone="no"?>
<svg
   xmlns:dc="http://purl.org/dc/elements/1.1/"
   xmlns:cc="http://creativecommons.org/ns#"
   xmlns:rdf="http://www.w3.org/1999/02/22-rdf-syntax-ns#"
   xmlns:svg="http://www.w3.org/2000/svg"
   xmlns="http://www.w3.org/2000/svg"
   xmlns:sodipodi="http://sodipodi.sourceforge.net/DTD/sodipodi-0.dtd"
   xmlns:inkscape="http://www.inkscape.org/namespaces/inkscape"
   sodipodi:docname="wave.svg"
   inkscape:version="1.0beta2 (2b71d25, 2019-12-03)"
   id="svg8"
   version="1.1"
   height="16"
   width="32">
  <defs
     id="defs2" />
  <sodipodi:namedview
     inkscape:snap-to-guides="true"
     inkscape:snap-grids="true"
     inkscape:snap-bbox-midpoints="false"
     inkscape:snap-bbox-edge-midpoints="false"
     inkscape:bbox-nodes="false"
     inkscape:bbox-paths="false"
     inkscape:snap-bbox="true"
     inkscape:snap-page="true"
     inkscape:window-maximized="0"
     inkscape:window-y="23"
     inkscape:window-x="0"
     inkscape:window-height="880"
     inkscape:window-width="1600"
     units="px"
     showgrid="true"
     inkscape:document-rotation="0"
     inkscape:current-layer="g1383"
     inkscape:document-units="px"
     inkscape:cy="8.0381042"
     inkscape:cx="14.7613"
     inkscape:zoom="22.4"
     inkscape:pageshadow="2"
     inkscape:pageopacity="0.0"
     borderopacity="1.0"
     bordercolor="#666666"
     pagecolor="#ffffff"
     id="base"
     inkscape:snap-global="true">
    <inkscape:grid
       id="grid841"
       type="xygrid" />
    <sodipodi:guide
       position="0,16"
       orientation="0,32"
       id="guide1406" />
    <sodipodi:guide
       position="32,16"
       orientation="16,0"
       id="guide1408" />
    <sodipodi:guide
       position="32,0"
       orientation="0,-32"
       id="guide1410" />
    <sodipodi:guide
       position="0,0"
       orientation="-16,0"
       id="guide1412" />
  </sodipodi:namedview>
  <metadata
     id="metadata5">
    <rdf:RDF>
      <cc:Work
         rdf:about="">
        <dc:format>image/svg+xml</dc:format>
        <dc:type
           rdf:resource="http://purl.org/dc/dcmitype/StillImage" />
        <dc:title />
      </cc:Work>
    </rdf:RDF>
  </metadata>
  <g
     sodipodi:insensitive="true"
     frame="1"
     type="frame"
     style="display:none;opacity:1"
     inkscape:label="frame01"
     id="g1383"
     inkscape:groupmode="layer">
    <path
       sodipodi:nodetypes="ccccccc"
       style="fill:#48b1e5;fill-opacity:1;stroke:none;stroke-width:1px;stroke-linecap:butt;stroke-linejoin:miter;stroke-opacity:1"
       d="m 25,16 v 0 0 -1 h 7 v 1 z"
       id="path1381"
       inkscape:connector-curvature="0" />
  </g>
  <g
     sodipodi:insensitive="true"
     inkscape:groupmode="layer"
     id="g1379"
     inkscape:label="frame02"
     style="display:none;opacity:1"
     type="frame"
     frame="2">
    <path
       inkscape:connector-curvature="0"
       id="path1377"
       d="m 0,16 v -1 h 22 v -1 h 9 v 1 h 1 v 1 z"
       style="fill:#48b1e5;fill-opacity:1;stroke:none;stroke-width:1px;stroke-linecap:butt;stroke-linejoin:miter;stroke-opacity:1"
       sodipodi:nodetypes="ccccccccc" />
  </g>
  <g
     sodipodi:insensitive="true"
     frame="3"
     type="frame"
     style="display:none;opacity:1"
     inkscape:label="frame03"
     id="g1375"
     inkscape:groupmode="layer">
    <path
       sodipodi:nodetypes="ccccccccc"
       style="fill:#48b1e5;fill-opacity:1;stroke:none;stroke-width:1px;stroke-linecap:butt;stroke-linejoin:miter;stroke-opacity:1"
       d="m 0,16 v -2 h 19 v -1 h 9 v 1 h 4 v 2 z"
       id="path1373"
       inkscape:connector-curvature="0" />
  </g>
  <g
     sodipodi:insensitive="true"
     inkscape:groupmode="layer"
     id="g1371"
     inkscape:label="frame04"
     style="display:none;opacity:1"
     type="frame"
     frame="4">
    <path
       inkscape:connector-curvature="0"
       id="path1369"
       d="m 0,16 v -3 h 16 v -1 h 9 v 1 h 5 v 1 h 2 v 2 z"
       style="fill:#48b1e5;fill-opacity:1;stroke:none;stroke-width:1px;stroke-linecap:butt;stroke-linejoin:miter;stroke-opacity:1"
       sodipodi:nodetypes="ccccccccccc" />
  </g>
  <g
     sodipodi:insensitive="true"
     frame="5"
     type="frame"
     style="display:none;opacity:1"
     inkscape:label="frame05"
     id="g1367"
     inkscape:groupmode="layer">
    <path
       sodipodi:nodetypes="ccccccccccc"
       style="fill:#48b1e5;fill-opacity:1;stroke:none;stroke-width:1px;stroke-linecap:butt;stroke-linejoin:miter;stroke-opacity:1"
       d="m 0,16 v -4 h 13 v -1 h 9 v 1 h 5 v 1 h 5 v 3 z"
       id="path1365"
       inkscape:connector-curvature="0" />
  </g>
  <g
     sodipodi:insensitive="true"
     inkscape:groupmode="layer"
     id="g1363"
     inkscape:label="frame06"
     style="display:none;opacity:1"
     type="frame"
     frame="6">
    <path
       inkscape:connector-curvature="0"
       id="path1361"
       d="m 0,16 v -5 h 10 v -1 h 9 v 1 h 5 v 1 h 8 v 4 z"
       style="fill:#48b1e5;fill-opacity:1;stroke:none;stroke-width:1px;stroke-linecap:butt;stroke-linejoin:miter;stroke-opacity:1"
       sodipodi:nodetypes="ccccccccccc" />
  </g>
  <g
     sodipodi:insensitive="true"
     frame="7"
     type="frame"
     style="display:none;opacity:1"
     inkscape:label="frame07"
     id="g1359"
     inkscape:groupmode="layer">
    <path
       sodipodi:nodetypes="ccccccccccccc"
       style="fill:#48b1e5;fill-opacity:1;stroke:none;stroke-width:1px;stroke-linecap:butt;stroke-linejoin:miter;stroke-opacity:1"
       d="M 0,16 V 10 H 7 V 9 h 9 v 1 h 5 v 1 h 9 v -1 h 2 v 6 z"
       id="path1357"
       inkscape:connector-curvature="0" />
  </g>
  <g
     sodipodi:insensitive="true"
     inkscape:groupmode="layer"
     id="layer3"
     inkscape:label="frame08"
     style="display:none;opacity:1"
     type="frame"
     frame="8">
    <path
       inkscape:connector-curvature="0"
       id="path1079"
       d="M 0,16 V 9 H 4 V 8 h 9 v 1 h 5 v 1 h 9 V 9 h 3 V 8 h 2 v 8 z"
       style="fill:#48b1e5;fill-opacity:1;stroke:none;stroke-width:1px;stroke-linecap:butt;stroke-linejoin:miter;stroke-opacity:1" />
  </g>
  <g
     sodipodi:insensitive="true"
     inkscape:groupmode="layer"
     id="g1046"
     inkscape:label="frame09"
     style="display:none;opacity:1"
     type="frame"
     frame="9">
    <path
       inkscape:connector-curvature="0"
       id="path1100"
       d="M 0,16 V 9 H 6 V 8 h 4 v 1 h 6 v 1 H 27 V 9 h 2 V 8 h 1 V 7 h 2 v 9 z"
       style="fill:#48b1e5;fill-opacity:1;stroke:none;stroke-width:1px;stroke-linecap:butt;stroke-linejoin:miter;stroke-opacity:1" />
  </g>
  <g
     sodipodi:insensitive="true"
     frame="10"
     type="frame"
     style="display:none;opacity:1"
     inkscape:label="frame10"
     id="g1034"
     inkscape:groupmode="layer">
    <path
       inkscape:connector-curvature="0"
       id="path1102"
       d="m 0,16 v -6 h 15 v 1 h 9 v -1 h 1 V 9 h 2 V 8 7 h 1 V 6 h 1 V 2 h 3 v 14 z"
       style="fill:#48b1e5;fill-opacity:1;stroke:none;stroke-width:1px;stroke-linecap:butt;stroke-linejoin:miter;stroke-opacity:1" />
    <path
       inkscape:connector-curvature="0"
       id="path1105"
       d="M 25,10 V 9 h 2 V 7 h 1 V 6 h 1 V 2 h 2 v 4 h -1 v 3 h -1 v 1 z"
       style="fill:#1c296b;fill-opacity:1;stroke:none;stroke-width:1px;stroke-linecap:butt;stroke-linejoin:miter;stroke-opacity:1" />
  </g>
  <g
     sodipodi:insensitive="true"
     inkscape:groupmode="layer"
     id="g1060"
     inkscape:label="frame11"
     style="display:none;opacity:1"
     type="frame"
     frame="11">
    <path
       inkscape:connector-curvature="0"
       id="path1107"
       d="m 0,16 v -5 h 2 v -1 h 11 v 1 h 10 v -1 h 2 V 8 h 1 V 4 H 25 V 2 h 7 v 14 z"
       style="fill:#48b1e5;fill-opacity:1;stroke:none;stroke-width:1px;stroke-linecap:butt;stroke-linejoin:miter;stroke-opacity:1" />
    <path
       inkscape:connector-curvature="0"
       id="path1109"
       d="M 25,10 V 8 h 1 V 4 H 25 V 3 h 7 v 6 h -2 v 1 z"
       style="fill:#1c296b;fill-opacity:1;stroke:none;stroke-width:1px;stroke-linecap:butt;stroke-linejoin:miter;stroke-opacity:1" />
    <path
       inkscape:connector-curvature="0"
       id="path1111"
       d="M 25,3 V 2 h 7 v 1 z"
       style="fill:#bae2f6;fill-opacity:1;stroke:none;stroke-width:1px;stroke-linecap:butt;stroke-linejoin:miter;stroke-opacity:1" />
  </g>
  <g
     sodipodi:insensitive="true"
     frame="12"
     type="frame"
     style="display:none;opacity:1"
     inkscape:label="frame12"
     id="g1074"
     inkscape:groupmode="layer">
    <path
       inkscape:connector-curvature="0"
       id="path1113"
       d="m 0,16 v -5 h 17 v 1 h 4 v -1 h 2 v -1 h 1 V 9 h 1 V 6 H 24 V 5 H 21 V 3 h 5 V 2 h 5 v 1 h 1 v 13 z"
       style="fill:#48b1e5;fill-opacity:1;stroke:none;stroke-width:1px;stroke-linecap:butt;stroke-linejoin:miter;stroke-opacity:1" />
    <path
       inkscape:connector-curvature="0"
       id="path1115"
       d="m 23,11 v -1 h 1 V 9 h 1 V 6 H 24 V 4 h 2 V 3 h 6 v 6 h -2 v 1 h -2 v 1 z"
       style="fill:#1c296b;fill-opacity:1;stroke:none;stroke-width:1px;stroke-linecap:butt;stroke-linejoin:miter;stroke-opacity:1" />
    <path
       inkscape:connector-curvature="0"
       id="path1117"
       d="M 24,5 H 21 V 3 h 5 V 2 h 5 v 1 h 1 v 1 h -8 z"
       style="fill:#bae2f6;fill-opacity:1;stroke:none;stroke-width:1px;stroke-linecap:butt;stroke-linejoin:miter;stroke-opacity:1" />
  </g>
  <g
     sodipodi:insensitive="true"
     inkscape:groupmode="layer"
     id="g1057"
     inkscape:label="frame13"
     style="display:none;opacity:1"
     type="frame"
     frame="13">
    <path
       inkscape:connector-curvature="0"
       id="path1119"
       d="m 0,16 v -5 h 10 v 1 h 11 v -1 h 1 v -1 h 1 V 6 H 18 V 5 h 1 V 4 h 3 V 3 h 10 v 13 z"
       style="fill:#48b1e5;fill-opacity:1;stroke:none;stroke-width:1px;stroke-linecap:butt;stroke-linejoin:miter;stroke-opacity:1" />
    <path
       inkscape:connector-curvature="0"
       id="path1121"
       d="m 22,11 v -1 h 1 V 6 H 22 V 5 h 4 V 4 h 6 v 5 h -1 v 1 h -2 v 1 z"
       style="fill:#1c296b;fill-opacity:1;stroke:none;stroke-width:1px;stroke-linecap:butt;stroke-linejoin:miter;stroke-opacity:1" />
    <path
       inkscape:connector-curvature="0"
       id="path1123"
       d="M 22,6 H 18 V 5 h 1 V 4 h 3 V 3 H 32 V 5 H 22 Z"
       style="fill:#bae2f6;fill-opacity:1;stroke:none;stroke-width:1px;stroke-linecap:butt;stroke-linejoin:miter;stroke-opacity:1" />
  </g>
  <g
     sodipodi:insensitive="true"
     frame="14"
     type="frame"
     style="display:none;opacity:1"
     inkscape:label="frame14"
     id="g1084"
     inkscape:groupmode="layer">
    <path
       inkscape:connector-curvature="0"
       id="path1125"
       d="m 0,16 v -4 h 20 v -1 h 1 v -1 h 1 V 6 H 19 V 7 H 17 V 6 h 1 V 5 h 1 V 4 h 4 V 3 h 9 v 13 z"
       style="fill:#48b1e5;fill-opacity:1;stroke:none;stroke-width:1px;stroke-linecap:butt;stroke-linejoin:miter;stroke-opacity:1" />
    <path
       inkscape:connector-curvature="0"
       id="path1127"
       d="m 20,12 v -1 h 1 v -1 h 1 V 6 H 21 V 5 h 6 V 4 h 5 v 5 h -1 v 1 h -2 v 1 h -3 v 1 z"
       style="fill:#1c296b;fill-opacity:1;stroke:none;stroke-width:1px;stroke-linecap:butt;stroke-linejoin:miter;stroke-opacity:1" />
    <path
       inkscape:connector-curvature="0"
       id="path1129"
       d="M 19,6 V 7 H 17 V 6 h 1 V 5 h 1 V 4 h 4 V 3 h 9 v 2 h -5 v 1 z"
       style="fill:#bae2f6;fill-opacity:1;stroke:none;stroke-width:1px;stroke-linecap:butt;stroke-linejoin:miter;stroke-opacity:1" />
  </g>
  <g
     sodipodi:insensitive="true"
     inkscape:groupmode="layer"
     id="g1102"
     inkscape:label="frame15"
     style="display:none;opacity:1"
     type="frame"
     frame="15">
    <path
       inkscape:connector-curvature="0"
       id="path1131"
       d="m 0,16 v -4 h 8 v 1 h 7 v -1 h 4 v -1 h 2 v -1 h 1 V 7 H 20 V 6 H 18 V 7 H 17 V 8 H 15 V 7 h 1 V 6 h 1 V 5 h 2 V 4 h 3 V 3 h 10 v 13 z"
       style="fill:#48b1e5;fill-opacity:1;stroke:none;stroke-width:1px;stroke-linecap:butt;stroke-linejoin:miter;stroke-opacity:1" />
    <path
       inkscape:connector-curvature="0"
       id="path1133"
       d="m 19,13 v -2 h 2 v -1 h 1 V 7 H 20 V 5 h 12 v 4 h -1 v 1 h -1 v 1 h -2 v 1 h -4 v 1 z"
       style="fill:#1c296b;fill-opacity:1;stroke:none;stroke-width:1px;stroke-linecap:butt;stroke-linejoin:miter;stroke-opacity:1" />
    <path
       inkscape:connector-curvature="0"
       id="path1135"
       d="M 17,8 H 15 V 7 h 1 V 6 h 1 V 5 h 2 V 4 h 3 V 3 H 32 V 5 H 20 v 1 h -2 v 1 h -1 z"
       style="fill:#bae2f6;fill-opacity:1;stroke:none;stroke-width:1px;stroke-linecap:butt;stroke-linejoin:miter;stroke-opacity:1" />
  </g>
  <g
     sodipodi:insensitive="true"
     frame="16"
     type="frame"
     style="display:none;opacity:1"
     inkscape:label="frame16"
     id="g1120"
     inkscape:groupmode="layer">
    <path
       inkscape:connector-curvature="0"
       id="path1137"
       d="m 0,16 v -4 h 6 v 1 h 9 v -1 h 2 v -1 h 1 V 8 h -3 v 1 h -2 v 1 H 11 V 9 h 1 V 8 h 1 V 7 h 1 V 6 h 2 V 5 h 2 V 4 h 3 V 3 h 7 v 1 h 2 v 1 h 2 v 11 z"
       style="fill:#48b1e5;fill-opacity:1;stroke:none;stroke-width:1px;stroke-linecap:butt;stroke-linejoin:miter;stroke-opacity:1" />
    <path
       inkscape:connector-curvature="0"
       id="path1139"
       d="m 15,13 v -1 h 2 v -1 h 1 V 8 H 17 V 6 h 12 v 1 h 1 v 4 h -1 v 1 h -3 v 1 z"
       style="fill:#1c296b;fill-opacity:1;stroke:none;stroke-width:1px;stroke-linecap:butt;stroke-linejoin:miter;stroke-opacity:1" />
    <path
       inkscape:connector-curvature="0"
       id="path1141"
       d="M 13,10 H 11 V 9 h 1 V 8 h 1 V 7 h 1 V 6 h 2 V 5 h 2 V 4 h 3 V 3 h 7 v 1 h 2 -3 V 6 H 17 v 2 h -2 v 1 h -2 z"
       style="fill:#bae2f6;fill-opacity:1;stroke:none;stroke-width:1px;stroke-linecap:butt;stroke-linejoin:miter;stroke-opacity:1" />
  </g>
  <g
     sodipodi:insensitive="true"
     inkscape:groupmode="layer"
     id="g1138"
     inkscape:label="frame17"
     style="display:none;opacity:1"
     type="frame"
     frame="17">
    <path
       sodipodi:nodetypes="ccccccccccccccccccccccccccccccccccccccc"
       inkscape:connector-curvature="0"
       id="path1143"
       d="m 0,16 v -4 h 3 v 1 h 11 v -1 h 3 v -1 h 1 V 8 h -2 v 1 h -2 v 1 h -1 v 1 H 11 V 9 h 1 V 8 h 1 V 7 h 1 V 6 h 2 V 5 h 2 V 4 h 3 V 3 h 5 v 1 h 3 v 1 h 2 v 1 h 1 v 10 z"
       style="fill:#48b1e5;fill-opacity:1;stroke:none;stroke-width:1px;stroke-linecap:butt;stroke-linejoin:miter;stroke-opacity:1" />
    <path
       inkscape:connector-curvature="0"
       id="path1145"
       d="m 14,13 v -1 h 3 v -1 h 1 V 7 h 4 V 6 h 3 v 1 h 1 v 2 h -1 v 1 h -1 v 1 h -1 v 1 h -2 v 1 z"
       style="fill:#1c296b;fill-opacity:1;stroke:none;stroke-width:1px;stroke-linecap:butt;stroke-linejoin:miter;stroke-opacity:1" />
    <path
       inkscape:connector-curvature="0"
       id="path1147"
       d="M 13,11 H 11 V 9 h 1 V 8 h 1 V 7 h 1 V 6 h 2 V 5 h 2 V 4 h 3 V 3 h 5 v 1 h 3 -3 v 2 h -4 v 1 h -4 v 1 h -2 v 1 h -2 v 1 h -1 z"
       style="fill:#bae2f6;fill-opacity:1;stroke:none;stroke-width:1px;stroke-linecap:butt;stroke-linejoin:miter;stroke-opacity:1" />
  </g>
  <g
     sodipodi:insensitive="true"
     frame="18"
     type="frame"
     style="display:none;opacity:1"
     inkscape:label="frame18"
     id="g1159"
     inkscape:groupmode="layer">
    <path
       inkscape:connector-curvature="0"
       id="path1161"
       d="m 0,16 v -4 h 3 v 1 h 11 v -1 h 2 v -1 h 1 V 9 h -5 v 2 h -1 v 2 h -1 v -3 h 1 V 8 h 1 V 7 h 2 V 5 h 4 V 4 h 8 v 1 h 3 v 1 h 1 v 1 h 2 v 9 z"
       style="fill:#48b1e5;fill-opacity:1;stroke:none;stroke-width:1px;stroke-linecap:butt;stroke-linejoin:miter;stroke-opacity:1" />
    <path
       inkscape:connector-curvature="0"
       id="path1163"
       d="m 13,13 h 1 v -1 h 2 v -1 h 1 V 9 H 14 V 8 h 3 V 7 h 9 v 3 h -1 v 1 h -1 v 1 h -2 v 1 h -3 v 1 h -6 z"
       style="fill:#1c296b;fill-opacity:1;stroke:none;stroke-width:1px;stroke-linecap:butt;stroke-linejoin:miter;stroke-opacity:1" />
    <path
       sodipodi:nodetypes="ccccccccccccccccccccccc"
       inkscape:connector-curvature="0"
       id="path1165"
       d="m 11,13 h -1 v -3 h 1 V 8 h 1 V 7 h 2 V 5 h 4 4 -4 v 1 h -2 v 1 h 1 v 1 h -3 v 1 h -2 v 2 h -1 z"
       style="fill:#bae2f6;fill-opacity:1;stroke:none;stroke-width:1px;stroke-linecap:butt;stroke-linejoin:miter;stroke-opacity:1" />
  </g>
  <g
     sodipodi:insensitive="true"
     inkscape:groupmode="layer"
     id="g1177"
     inkscape:label="frame19"
     style="display:none;opacity:1"
     type="frame"
     frame="19">
    <path
       inkscape:connector-curvature="0"
       id="path1179"
       d="m 0,16 v -3 h 13 v -1 h 2 v -2 h -2 v 1 h -1 v 2 H 10 V 9 h 1 V 8 h 1 V 7 h 1 V 6 h 2 V 5 h 5 V 4 h 5 v 1 h 3 v 1 h 2 v 1 h 1 v 1 h 1 v 8 z"
       style="fill:#48b1e5;fill-opacity:1;stroke:none;stroke-width:0.1;stroke-linecap:butt;stroke-linejoin:miter;stroke-miterlimit:4;stroke-dasharray:none;stroke-opacity:1" />
    <path
       inkscape:connector-curvature="0"
       id="path1181"
       d="m 12,13 h 1 v -1 h 2 V 8 h 11 v 1 h -1 v 1 h -1 v 1 h -2 v 1 h -3 v 1 z"
       style="fill:#1c296b;fill-opacity:1;stroke:none;stroke-width:0.1;stroke-linecap:butt;stroke-linejoin:miter;stroke-miterlimit:4;stroke-dasharray:none;stroke-opacity:1" />
    <path
       inkscape:connector-curvature="0"
       id="path1183"
       d="m 21,8 h -6 v 2 h -2 v 1 h -1 v 2 H 10 V 9 h 1 V 8 h 1 V 7 h 1 V 6 h 4 v 1 h 4 z"
       style="fill:#bae2f6;fill-opacity:1;stroke:none;stroke-width:1px;stroke-linecap:butt;stroke-linejoin:miter;stroke-opacity:1" />
  </g>
  <g
     sodipodi:insensitive="true"
     frame="20"
     type="frame"
     style="display:none;opacity:1"
     inkscape:label="frame20"
     id="g1195"
     inkscape:groupmode="layer">
    <path
       inkscape:connector-curvature="0"
       id="path1197"
       d="m 0,16 v -3 h 13 v -1 h 1 v -2 h -1 v 1 h -1 v 2 H 8 v -1 h 1 v -1 h 1 V 9 h 1 V 8 h 1 V 7 h 2 V 6 h 1 V 5 h 4 V 4 h 4 v 1 h 4 v 1 h 1 v 1 h 2 v 1 h 1 v 1 h 1 v 7 z"
       style="fill:#48b1e5;fill-opacity:1;stroke:none;stroke-width:0.1;stroke-linecap:butt;stroke-linejoin:miter;stroke-miterlimit:4;stroke-dasharray:none;stroke-opacity:1" />
    <path
       inkscape:connector-curvature="0"
       id="path1199"
       d="m 13,13 v -1 h 1 v -2 h 1 V 9 h 8 v 1 h -3 v 1 h -2 v 1 h -2 v 1 z"
       style="fill:#1c296b;fill-opacity:1;stroke:none;stroke-width:0.1;stroke-linecap:butt;stroke-linejoin:miter;stroke-miterlimit:4;stroke-dasharray:none;stroke-opacity:1" />
    <path
       inkscape:connector-curvature="0"
       id="path1201"
       d="m 12,11 v 2 H 8 v -1 h 1 v -1 h 1 V 9 h 1 V 8 h 1 V 7 h 3 v 1 h 5 v 1 h -5 v 1 h -2 v 1 z"
       style="fill:#bae2f6;fill-opacity:1;stroke:none;stroke-width:1px;stroke-linecap:butt;stroke-linejoin:miter;stroke-opacity:1" />
  </g>
  <g
     sodipodi:insensitive="true"
     inkscape:groupmode="layer"
     id="g1213"
     inkscape:label="frame21"
     style="display:none;opacity:1"
     type="frame"
     frame="21">
    <path
       inkscape:connector-curvature="0"
       id="path1215"
       d="m 0,16 v -3 h 2 v -1 h 4 v -1 h 3 v -1 h 1 V 9 h 1 V 8 h 1 V 7 h 2 V 6 h 3 V 5 h 7 v 1 h 3 v 1 h 1 v 1 h 2 v 1 h 2 v 7 z"
       style="fill:#48b1e5;fill-opacity:1;stroke:none;stroke-width:0.1;stroke-linecap:butt;stroke-linejoin:miter;stroke-miterlimit:4;stroke-dasharray:none;stroke-opacity:1" />
    <path
       inkscape:connector-curvature="0"
       id="path1217"
       d="m 12,13 v -1 h 1 v -1 h 1 v -1 h 2 V 9 h 5 v 1 h 2 v 1 h -5 v 1 h -2 v 1 z"
       style="fill:#1c296b;fill-opacity:1;stroke:none;stroke-width:0.1;stroke-linecap:butt;stroke-linejoin:miter;stroke-miterlimit:4;stroke-dasharray:none;stroke-opacity:1" />
    <path
       inkscape:connector-curvature="0"
       id="path1219"
       d="m 6,11 h 3 v -1 h 3 V 9 h 4 v 1 h -2 v 1 h -1 v 1 h -1 v 1 H 6 Z"
       style="fill:#bae2f6;fill-opacity:1;stroke:none;stroke-width:1px;stroke-linecap:butt;stroke-linejoin:miter;stroke-opacity:1" />
  </g>
  <g
     sodipodi:insensitive="true"
     frame="22"
     type="frame"
     style="display:none;opacity:1"
     inkscape:label="frame22"
     id="g1231"
     inkscape:groupmode="layer">
    <path
       inkscape:connector-curvature="0"
       id="path1233"
       d="m 0,16 v -3 h 1 v -1 h 5 v -2 h 4 V 9 h 2 V 8 h 1 V 7 h 2 V 6 h 10 v 1 h 2 v 1 h 2 v 1 h 1 v 1 h 2 v 6 z"
       style="fill:#48b1e5;fill-opacity:1;stroke:none;stroke-width:0.1;stroke-linecap:butt;stroke-linejoin:miter;stroke-miterlimit:4;stroke-dasharray:none;stroke-opacity:1" />
    <path
       inkscape:connector-curvature="0"
       id="path1235"
       d="m 6,10 h 8 v 1 h -1 v 1 h -1 v 1 H 6 Z"
       style="fill:#bae2f6;fill-opacity:1;stroke:none;stroke-width:1px;stroke-linecap:butt;stroke-linejoin:miter;stroke-opacity:1" />
  </g>
  <g
     sodipodi:insensitive="true"
     inkscape:groupmode="layer"
     id="g1245"
     inkscape:label="frame23"
     style="display:none;opacity:1"
     type="frame"
     frame="23">
    <path
       inkscape:connector-curvature="0"
       id="path1247"
       d="m 0,16 v -4 h 2 v -1 h 1 v -1 h 7 V 9 h 3 V 8 h 3 V 7 h 7 v 1 h 3 v 1 h 2 v 1 h 4 v 6 z"
       style="fill:#48b1e5;fill-opacity:1;stroke:none;stroke-width:0.1;stroke-linecap:butt;stroke-linejoin:miter;stroke-miterlimit:4;stroke-dasharray:none;stroke-opacity:1" />
    <path
       inkscape:connector-curvature="0"
       id="path1249"
       d="m 2,13 v -2 h 1 v -1 h 6 v 1 h 1 v 1 1 z"
       style="fill:#bae2f6;fill-opacity:1;stroke:none;stroke-width:1px;stroke-linecap:butt;stroke-linejoin:miter;stroke-opacity:1" />
  </g>
  <g
     sodipodi:insensitive="true"
     frame="24"
     type="frame"
     style="display:none;opacity:1"
     inkscape:label="frame24"
     id="g1259"
     inkscape:groupmode="layer">
    <path
       inkscape:connector-curvature="0"
       id="path1261"
       d="m 0,16 v -4 h 1 v -1 h 1 v -1 h 8 V 9 h 3 V 8 h 9 v 1 h 3 v 1 h 5 v 1 h 2 v 5 z"
       style="fill:#48b1e5;fill-opacity:1;stroke:none;stroke-width:0.1;stroke-linecap:butt;stroke-linejoin:miter;stroke-miterlimit:4;stroke-dasharray:none;stroke-opacity:1" />
    <path
       inkscape:connector-curvature="0"
       id="path1263"
       d="m 1,13 v -2 h 1 v -1 h 5 v 2 h 2 v 1 z"
       style="fill:#bae2f6;fill-opacity:1;stroke:none;stroke-width:1px;stroke-linecap:butt;stroke-linejoin:miter;stroke-opacity:1" />
  </g>
  <g
     sodipodi:insensitive="true"
     inkscape:groupmode="layer"
     id="g1273"
     inkscape:label="frame25"
     style="display:none;opacity:1"
     type="frame"
     frame="25">
    <path
       inkscape:connector-curvature="0"
       id="path1275"
       d="M 0,16 V 10 H 10 V 9 h 6 V 8 h 5 v 1 h 3 v 1 h 4 v 1 h 4 v 5 z"
       style="fill:#48b1e5;fill-opacity:1;stroke:none;stroke-width:0.1;stroke-linecap:butt;stroke-linejoin:miter;stroke-miterlimit:4;stroke-dasharray:none;stroke-opacity:1" />
    <path
       inkscape:connector-curvature="0"
       id="path1277"
       d="m 0,13 v -3 h 6 v 2 h 2 v 1 z"
       style="fill:#bae2f6;fill-opacity:1;stroke:none;stroke-width:1px;stroke-linecap:butt;stroke-linejoin:miter;stroke-opacity:1" />
  </g>
  <g
     sodipodi:insensitive="true"
     frame="26"
     type="frame"
     style="display:none;opacity:1"
     inkscape:label="frame26"
     id="g1287"
     inkscape:groupmode="layer">
    <path
       inkscape:connector-curvature="0"
       id="path1289"
       d="M 0,16 V 10 H 10 V 9 h 14 v 1 h 5 v 1 h 3 v 5 z"
       style="fill:#48b1e5;fill-opacity:1;stroke:none;stroke-width:0.1;stroke-linecap:butt;stroke-linejoin:miter;stroke-miterlimit:4;stroke-dasharray:none;stroke-opacity:1" />
    <path
       inkscape:connector-curvature="0"
       id="path1291"
       d="m 0,13 v -3 h 3 v 1 h 4 v 2 z"
       style="fill:#bae2f6;fill-opacity:1;stroke:none;stroke-width:1px;stroke-linecap:butt;stroke-linejoin:miter;stroke-opacity:1" />
  </g>
  <g
     sodipodi:insensitive="true"
     inkscape:groupmode="layer"
     id="g1301"
     inkscape:label="frame27"
     style="display:none;opacity:1"
     type="frame"
     frame="27">
    <path
       inkscape:connector-curvature="0"
       id="path1303"
       d="M 0,16 V 11 H 1 V 10 H 9 V 9 h 15 v 1 h 4 v 1 h 4 v 5 z"
       style="fill:#48b1e5;fill-opacity:1;stroke:none;stroke-width:0.1;stroke-linecap:butt;stroke-linejoin:miter;stroke-miterlimit:4;stroke-dasharray:none;stroke-opacity:1" />
    <path
       inkscape:connector-curvature="0"
       id="path1305"
       d="m 0,13 v -2 h 5 v 2 z"
       style="fill:#bae2f6;fill-opacity:1;stroke:none;stroke-width:1px;stroke-linecap:butt;stroke-linejoin:miter;stroke-opacity:1" />
  </g>
  <g
     sodipodi:insensitive="true"
     frame="28"
     type="frame"
     style="display:none;opacity:1"
     inkscape:label="frame28"
     id="g1315"
     inkscape:groupmode="layer">
    <path
       inkscape:connector-curvature="0"
       id="path1317"
       d="M 0,16 V 11 H 1 V 10 H 6 V 9 h 15 v 1 h 8 v 1 h 3 v 5 z"
       style="fill:#48b1e5;fill-opacity:1;stroke:none;stroke-width:0.1;stroke-linecap:butt;stroke-linejoin:miter;stroke-miterlimit:4;stroke-dasharray:none;stroke-opacity:1" />
    <path
       inkscape:connector-curvature="0"
       id="path1319"
       d="m 0,13 v -2 h 2 v 2 z"
       style="fill:#bae2f6;fill-opacity:1;stroke:none;stroke-width:1px;stroke-linecap:butt;stroke-linejoin:miter;stroke-opacity:1" />
  </g>
  <g
     sodipodi:insensitive="true"
     inkscape:groupmode="layer"
     id="g1335"
     inkscape:label="frame29"
     style="display:none;opacity:1"
     type="frame"
     frame="29">
    <path
       sodipodi:nodetypes="ccccccccccc"
       style="fill:#48b1e5;fill-opacity:1;stroke:none;stroke-width:0.1;stroke-linecap:butt;stroke-linejoin:miter;stroke-miterlimit:4;stroke-dasharray:none;stroke-opacity:1"
       d="m 0,16 v -5 h 3 v -1 h 15 v 1 h 8 v 1 h 6 v 4 z"
       id="path1331"
       inkscape:connector-curvature="0" />
  </g>
  <g
     sodipodi:insensitive="true"
     frame="30"
     type="frame"
     style="display:none;opacity:1"
     inkscape:label="frame30"
     id="g1343"
     inkscape:groupmode="layer">
    <path
       inkscape:connector-curvature="0"
       id="path1341"
       d="m 0,16 v -5 h 15 v 1 h 8 v 1 h 9 v 3 z"
       style="fill:#48b1e5;fill-opacity:1;stroke:none;stroke-width:0.1;stroke-linecap:butt;stroke-linejoin:miter;stroke-miterlimit:4;stroke-dasharray:none;stroke-opacity:1"
       sodipodi:nodetypes="ccccccccc" />
  </g>
  <g
     sodipodi:insensitive="true"
     inkscape:groupmode="layer"
     id="g1347"
     inkscape:label="frame31"
     style="display:none;opacity:1"
     type="frame"
     frame="31">
    <path
       sodipodi:nodetypes="ccccccccc"
       style="fill:#48b1e5;fill-opacity:1;stroke:none;stroke-width:0.1;stroke-linecap:butt;stroke-linejoin:miter;stroke-miterlimit:4;stroke-dasharray:none;stroke-opacity:1"
       d="m 0,16 v -4 h 12 v 1 h 8 v 1 h 12 v 2 z"
       id="path1345"
       inkscape:connector-curvature="0" />
  </g>
  <g
     sodipodi:insensitive="true"
     frame="32"
     type="frame"
     style="display:none;opacity:1"
     inkscape:label="frame32"
     id="g1351"
     inkscape:groupmode="layer">
    <path
       inkscape:connector-curvature="0"
       id="path1349"
       d="m 0,16 v -3 h 9 v 1 h 8 v 1 h 15 v 1 z"
       style="fill:#48b1e5;fill-opacity:1;stroke:none;stroke-width:0.1;stroke-linecap:butt;stroke-linejoin:miter;stroke-miterlimit:4;stroke-dasharray:none;stroke-opacity:1"
       sodipodi:nodetypes="ccccccccc" />
  </g>
  <g
     sodipodi:insensitive="true"
     inkscape:groupmode="layer"
     id="g1355"
     inkscape:label="frame33"
     style="display:none;opacity:1"
     type="frame"
     frame="33">
    <path
       sodipodi:nodetypes="ccccccccc"
       style="fill:#48b1e5;fill-opacity:1;stroke:none;stroke-width:0.1;stroke-linecap:butt;stroke-linejoin:miter;stroke-miterlimit:4;stroke-dasharray:none;stroke-opacity:1"
       d="m 0,16 v -2 h 6 v 1 h 8 v 1 0 0 z"
       id="path1353"
       inkscape:connector-curvature="0" />
  </g>
</svg>
